<svg version="1.1" viewBox="0.0 0.0 302.3622047244094 302.3622047244094" fill="none" stroke="none" stroke-linecap="square" stroke-miterlimit="10" xmlns:xlink="http://www.w3.org/1999/xlink" xmlns="http://www.w3.org/2000/svg"><clipPath id="p.0"><path d="m0 0l302.3622 0l0 302.3622l-302.3622 0l0 -302.3622z" clip-rule="nonzero"/></clipPath><g clip-path="url(#p.0)"><path fill="#ffffff" d="m0 0l302.3622 0l0 302.3622l-302.3622 0z" fill-rule="evenodd"/><path fill="#000000" fill-opacity="0.0" d="m7.1391077 26.068241l284.25198 0l0 75.27559l-284.25198 0z" fill-rule="evenodd"/><path stroke="#595959" stroke-width="1.0" stroke-linejoin="round" stroke-linecap="butt" stroke-dasharray="4.0,3.0" d="m7.1391077 26.068241l284.25198 0l0 75.27559l-284.25198 0z" fill-rule="evenodd"/><path fill="#000000" fill-opacity="0.0" d="m7.149606 119.244095l284.25198 0l0 105.44882l-284.25198 0z" fill-rule="evenodd"/><path stroke="#595959" stroke-width="1.0" stroke-linejoin="round" stroke-linecap="butt" stroke-dasharray="4.0,3.0" d="m7.149606 119.244095l284.25198 0l0 105.44882l-284.25198 0z" fill-rule="evenodd"/><path fill="#000000" fill-opacity="0.0" d="m13.522434 57.587925l124.7874 0l0 28.787403l-124.7874 0z" fill-rule="evenodd"/><path stroke="#000000" stroke-width="1.0" stroke-linejoin="round" stroke-linecap="butt" d="m13.522434 57.587925l124.7874 0l0 28.787403l-124.7874 0z" fill-rule="evenodd"/><path fill="#000000" d="m26.426617 67.04725l7.109375 0l0 0.90625l-3.015625 0l0 8.828125l-1.0625 0l0 -8.828125l-3.03125 0l0 -0.90625zm12.159485 4.21875q-0.609375 -0.75 -1.65625 -0.75q-1.046875 0 -1.65625 0.75q-0.609375 0.734375 -0.609375 2.0625q0 1.3125 0.609375 2.046875q0.609375 0.734375 1.65625 0.734375q1.046875 0 1.65625 -0.734375q0.609375 -0.734375 0.609375 -2.046875q0 -1.328125 -0.609375 -2.0625zm0.71875 4.6875q-0.890625 0.96875 -2.375 0.96875q-1.484375 0 -2.375 -0.96875q-0.890625 -0.984375 -0.890625 -2.640625q0 -1.65625 0.890625 -2.625q0.890625 -0.96875 2.375 -0.96875q1.484375 0 2.375 0.96875q0.890625 0.96875 0.890625 2.625q0 1.65625 -0.890625 2.640625zm5.737625 0.96875q-1.546875 0 -2.265625 -1.3125l-0.03125 0l-0.015625 1.171875l-0.9375 0l0 -10.0l0.984375 0l0 4.203125l0.015625 0q0.734375 -1.265625 2.25 -1.265625q1.296875 0 2.046875 0.921875q0.75 0.921875 0.75 2.671875q0 1.71875 -0.765625 2.671875q-0.765625 0.9375 -2.03125 0.9375zm1.828125 -3.609375q0 -1.359375 -0.546875 -2.078125q-0.53125 -0.71875 -1.5 -0.71875q-0.90625 0 -1.484375 0.71875q-0.5625 0.71875 -0.5625 1.984375l0 0.1875q0 1.296875 0.5625 2.0q0.578125 0.703125 1.484375 0.703125q0.9375 0 1.484375 -0.71875q0.5625 -0.734375 0.5625 -2.078125zm3.0942535 -5.0625l0 -1.46875l1.03125 0l0 1.46875l-1.03125 0zm0 8.53125l0 -6.9375l1.03125 0l0 6.9375l-1.03125 0zm3.825058 -8.53125l0 -1.46875l1.03125 0l0 1.46875l-1.03125 0zm0 8.53125l0 -6.9375l1.03125 0l0 6.9375l-1.03125 0zm7.5662384 -9.65625q1.375 -0.203125 2.7031212 -0.203125q1.8125 0 2.75 0.765625q0.9375 0.765625 0.9375 2.1875q0 1.546875 -0.953125 2.34375q-0.9375 0.796875 -2.734375 0.796875q-0.8906212 0 -1.6406212 -0.078125l0 3.84375l-1.0625 0l0 -9.65625zm1.0625 4.9375q0.765625 0.109375 1.5625 0.109375q1.3124962 0 2.0156212 -0.5625q0.703125 -0.578125 0.703125 -1.640625q0 -1.078125 -0.6875 -1.625q-0.6875 -0.5625 -2.0312462 -0.5625q-0.734375 0 -1.5625 0.140625l0 4.140625zm6.6603813 -2.21875l0.953125 0l0.015625 1.484375l0.03125 0q1.171875 -1.609375 3.296875 -1.609375l0 0.84375q-1.46875 0 -2.390625 0.8125q-0.90625 0.8125 -0.90625 2.09375l0 3.3125l-1.0 0l0 -6.9375zm10.224075 1.421875q-0.609375 -0.75 -1.65625 -0.75q-1.046875 0 -1.65625 0.75q-0.609375 0.734375 -0.609375 2.0625q0 1.3125 0.609375 2.046875q0.609375 0.734375 1.65625 0.734375q1.046875 0 1.65625 -0.734375q0.609375 -0.734375 0.609375 -2.046875q0 -1.328125 -0.609375 -2.0625zm0.71875 4.6875q-0.890625 0.96875 -2.375 0.96875q-1.484375 0 -2.375 -0.96875q-0.890625 -0.984375 -0.890625 -2.640625q0 -1.65625 0.890625 -2.625q0.890625 -0.96875 2.375 -0.96875q1.484375 0 2.375 0.96875q0.890625 0.96875 0.890625 2.625q0 1.65625 -0.890625 2.640625zm9.118393 -8.171875q-0.921875 0 -1.4375 0.40625q-0.5 0.40625 -0.5 1.125q0 1.296875 1.890625 1.875q1.65625 0.46875 2.359375 1.203125q0.703125 0.71875 0.703125 1.859375q0 1.296875 -0.8125 1.984375q-0.8125 0.6875 -2.296875 0.6875q-1.65625 0 -2.9375 -0.84375l0.328125 -0.890625q1.15625 0.828125 2.609375 0.828125q0.984375 0 1.5 -0.453125q0.53125 -0.453125 0.53125 -1.3125q0 -0.796875 -0.453125 -1.265625q-0.4375 -0.484375 -1.546875 -0.828125q-2.921875 -0.859375 -2.921875 -2.84375q0 -1.09375 0.78125 -1.734375q0.796875 -0.65625 2.203125 -0.65625q1.5 0 2.796875 0.625l-0.265625 0.828125q-1.15625 -0.59375 -2.53125 -0.59375zm6.6119995 -0.203125l0 2.546875l2.625 0l0 0.796875l-2.625 0l0 3.640625q0 0.921875 0.25 1.234375q0.25 0.3125 0.9375 0.3125q0.625 0 1.1875 -0.21875l0.15625 0.78125q-0.6875 0.25 -1.46875 0.25q-1.140625 0 -1.609375 -0.484375q-0.453125 -0.5 -0.453125 -1.703125l0 -3.8125l-1.53125 0l0 -0.796875l1.53125 0l0 -2.546875l1.0 0zm5.5114746 2.265625l0 4.3125q0 1.0625 0.34375 1.5q0.359375 0.421875 1.1875 0.421875q0.78125 0 1.40625 -0.75q0.640625 -0.75 0.640625 -1.765625l0 -3.71875l0.96875 0l0 6.9375l-0.9375 0l-0.015625 -1.234375l-0.015625 0q-0.40625 0.640625 -1.03125 1.015625q-0.609375 0.359375 -1.328125 0.359375q-1.125 0 -1.65625 -0.640625q-0.515625 -0.640625 -0.515625 -2.03125l0 -4.40625l0.953125 0zm7.6558228 1.40625q-0.546875 0.71875 -0.546875 2.0625q0 1.34375 0.546875 2.078125q0.5625 0.71875 1.515625 0.71875q0.90625 0 1.46875 -0.703125q0.578125 -0.703125 0.578125 -2.0l0 -0.1875q0 -1.265625 -0.578125 -1.984375q-0.5625 -0.71875 -1.46875 -0.71875q-0.96875 0 -1.515625 0.734375zm-1.515625 2.0625q0 -1.75 0.75 -2.671875q0.75 -0.921875 2.0625 -0.921875q1.5 0 2.234375 1.265625l0.03125 0l0 -4.203125l0.96875 0l0 10.0l-0.9375 0l-0.015625 -1.171875l-0.015625 0q-0.734375 1.3125 -2.265625 1.3125q-1.28125 0 -2.046875 -0.9375q-0.765625 -0.953125 -0.765625 -2.671875zm8.641129 -5.0625l0 -1.46875l1.03125 0l0 1.46875l-1.03125 0zm0 8.53125l0 -6.9375l1.03125 0l0 6.9375l-1.03125 0zm8.013596 -5.515625q-0.609375 -0.75 -1.65625 -0.75q-1.046875 0 -1.65625 0.75q-0.609375 0.734375 -0.609375 2.0625q0 1.3125 0.609375 2.046875q0.609375 0.734375 1.65625 0.734375q1.046875 0 1.65625 -0.734375q0.609375 -0.734375 0.609375 -2.046875q0 -1.328125 -0.609375 -2.0625zm0.71875 4.6875q-0.890625 0.96875 -2.375 0.96875q-1.484375 0 -2.375 -0.96875q-0.890625 -0.984375 -0.890625 -2.640625q0 -1.65625 0.890625 -2.625q0.890625 -0.96875 2.375 -0.96875q1.484375 0 2.375 0.96875q0.890625 0.96875 0.890625 2.625q0 1.65625 -0.890625 2.640625z" fill-rule="nonzero"/><path fill="#000000" fill-opacity="0.0" d="m75.91601 180.89764l0 -94.51969" fill-rule="evenodd"/><path stroke="#e69138" stroke-width="2.0" stroke-linejoin="round" stroke-linecap="butt" d="m75.91601 180.89764l0 -87.66551" fill-rule="evenodd"/><path fill="#e69138" stroke="#e69138" stroke-width="2.0" stroke-linecap="butt" d="m75.91601 93.232124l2.2491684 2.2491684l-2.2491684 -6.179535l-2.2491684 6.179535z" fill-rule="evenodd"/><path fill="#000000" fill-opacity="0.0" d="m190.19029 71.98156l-51.874023 0" fill-rule="evenodd"/><path stroke="#e69138" stroke-width="2.0" stroke-linejoin="round" stroke-linecap="butt" d="m190.19029 71.98156l-45.019836 0" fill-rule="evenodd"/><path fill="#e69138" stroke="#e69138" stroke-width="2.0" stroke-linecap="butt" d="m145.17044 71.98156l2.249176 -2.2491684l-6.179535 2.2491684l6.179535 2.2491684z" fill-rule="evenodd"/><path fill="#000000" fill-opacity="0.0" d="m233.38715 86.37526l-90.23622 57.07086" fill-rule="evenodd"/><path stroke="#3c78d8" stroke-width="2.0" stroke-linejoin="round" stroke-linecap="butt" d="m233.38715 86.37527l-84.443405 53.407127" fill-rule="evenodd"/><path fill="#3c78d8" stroke="#3c78d8" stroke-width="2.0" stroke-linecap="butt" d="m148.94374 139.7824l0.6986542 -3.103119l-4.0204163 5.20401l6.424881 -1.4022369z" fill-rule="evenodd"/><path fill="#000000" fill-opacity="0.0" d="m80.755905 143.43176l124.7874 0l0 28.7874l-124.7874 0z" fill-rule="evenodd"/><path stroke="#000000" stroke-width="1.0" stroke-linejoin="round" stroke-linecap="butt" d="m80.755905 143.43176l124.7874 0l0 28.7874l-124.7874 0z" fill-rule="evenodd"/><path fill="#000000" d="m98.52639 153.65671q-0.6875 0 -1.28125 0.125l0 7.96875q0.59375 0.109375 1.28125 0.109375q4.046875 0 4.046875 -4.234375q0 -1.96875 -1.03125 -2.96875q-1.015625 -1.0 -3.015625 -1.0zm5.078125 3.96875q0 2.515625 -1.3125 3.828125q-1.3125 1.3125 -3.765625 1.3125q-1.171875 0 -2.34375 -0.21875l0 -9.578125q1.1875 -0.203125 2.34375 -0.203125q2.453125 0 3.765625 1.265625q1.3125 1.25 1.3125 3.59375zm2.0585022 -3.53125l0 -1.46875l1.03125 0l0 1.46875l-1.03125 0zm0 8.53125l0 -6.9375l1.03125 0l0 6.9375l-1.03125 0zm5.8573456 -7.0625q1.265625 0 2.34375 0.53125l-0.21875 0.78125q-1.03125 -0.515625 -2.125 -0.515625q-0.78125 0 -1.1875 0.28125q-0.40625 0.28125 -0.40625 0.78125q0 0.484375 0.34375 0.765625q0.359375 0.28125 1.296875 0.4375q1.359375 0.234375 1.953125 0.75q0.59375 0.515625 0.59375 1.421875q0 0.90625 -0.6875 1.4375q-0.6875 0.53125 -1.90625 0.53125q-1.4375 0 -2.5625 -0.671875l0.21875 -0.78125q1.09375 0.640625 2.34375 0.640625q0.765625 0 1.171875 -0.296875q0.421875 -0.296875 0.421875 -0.859375q0 -0.53125 -0.375 -0.828125q-0.359375 -0.296875 -1.28125 -0.453125q-1.3125 -0.21875 -1.90625 -0.71875q-0.59375 -0.5 -0.59375 -1.375q0 -0.84375 0.671875 -1.34375q0.671875 -0.515625 1.890625 -0.515625zm7.561554 7.203125q-1.5 0 -2.234375 -1.21875l-0.03125 0l0 4.015625l-0.96875 0l0 -9.875l0.9375 0l0.015625 1.1875l0.015625 0q0.734375 -1.3125 2.265625 -1.3125q1.3125 0 2.046875 0.921875q0.75 0.921875 0.75 2.671875q0 1.703125 -0.765625 2.65625q-0.765625 0.953125 -2.03125 0.953125zm1.84375 -3.609375q0 -1.359375 -0.546875 -2.078125q-0.53125 -0.71875 -1.5 -0.71875q-0.921875 0 -1.5 0.71875q-0.5625 0.71875 -0.5625 1.984375l0 0.1875q0 1.296875 0.578125 2.0q0.578125 0.703125 1.484375 0.703125q0.9375 0 1.484375 -0.71875q0.5625 -0.734375 0.5625 -2.078125zm3.0901184 3.46875l0 -10.0l1.03125 0l0 10.0l-1.03125 0zm6.091728 -7.0625q1.453125 0 2.078125 0.609375q0.625 0.59375 0.625 1.96875l0 2.625q0 0.9375 0.203125 1.859375l-0.9375 0q-0.109375 -0.515625 -0.125 -1.21875l-0.03125 0q-0.359375 0.625 -1.046875 1.0q-0.671875 0.359375 -1.53125 0.359375q-0.953125 0 -1.5312576 -0.546875q-0.5625 -0.546875 -0.5625 -1.453125q0 -1.171875 1.0000076 -1.84375q1.015625 -0.6875 2.890625 -0.6875l0.703125 0l0 -0.078125q0 -1.015625 -0.390625 -1.40625q-0.375 -0.390625 -1.34375 -0.390625q-1.25 0 -2.3281326 0.609375l-0.171875 -0.78125q1.1406326 -0.625 2.5000076 -0.625zm-1.90625 5.15625q0 0.59375 0.375 0.9375q0.375 0.34375 1.0 0.34375q0.921875 0 1.59375 -0.65625q0.671875 -0.671875 0.671875 -1.625l0 -0.75l-0.703125 0q-1.40625 0 -2.171875 0.484375q-0.765625 0.46875 -0.765625 1.265625zm6.8256683 -5.03125l2.0625 5.71875l0.03125 0l2.28125 -5.71875l1.03125 0l-4.125 9.875l-1.046875 0l1.3125 -2.984375l-2.625 -6.890625l1.078125 0zm15.835754 -2.796875l-4.59375 10.265625l-1.03125 0l4.578125 -10.265625l1.046875 0zm4.9974823 9.734375l3.5625 -9.734375l1.1875 0l3.546875 9.734375l-1.125 0l-0.984375 -2.84375l-4.109375 0l-0.96875 2.84375l-1.109375 0zm2.375 -3.6875l3.515625 0l-1.75 -5.078125l-0.03125 0l-1.734375 5.078125zm8.083237 -3.25l0 4.3125q0 1.0625 0.34375 1.5q0.359375 0.421875 1.1875 0.421875q0.78125 0 1.40625 -0.75q0.640625 -0.75 0.640625 -1.765625l0 -3.71875l0.96875 0l0 6.9375l-0.9375 0l-0.015625 -1.234375l-0.015625 0q-0.40625 0.640625 -1.03125 1.015625q-0.609375 0.359375 -1.328125 0.359375q-1.125 0 -1.65625 -0.640625q-0.515625 -0.640625 -0.515625 -2.03125l0 -4.40625l0.953125 0zm7.6558228 1.40625q-0.546875 0.71875 -0.546875 2.0625q0 1.34375 0.546875 2.078125q0.5625 0.71875 1.515625 0.71875q0.90625 0 1.46875 -0.703125q0.578125 -0.703125 0.578125 -2.0l0 -0.1875q0 -1.265625 -0.578125 -1.984375q-0.5625 -0.71875 -1.46875 -0.71875q-0.96875 0 -1.515625 0.734375zm-1.515625 2.0625q0 -1.75 0.75 -2.671875q0.75 -0.921875 2.0625 -0.921875q1.5 0 2.234375 1.265625l0.03125 0l0 -4.203125l0.96875 0l0 10.0l-0.9375 0l-0.015625 -1.171875l-0.015625 0q-0.734375 1.3125 -2.265625 1.3125q-1.28125 0 -2.046875 -0.9375q-0.765625 -0.953125 -0.765625 -2.671875zm8.641129 -5.0625l0 -1.46875l1.03125 0l0 1.46875l-1.03125 0zm0 8.53125l0 -6.9375l1.03125 0l0 6.9375l-1.03125 0zm8.013596 -5.515625q-0.609375 -0.75 -1.65625 -0.75q-1.046875 0 -1.65625 0.75q-0.609375 0.734375 -0.609375 2.0625q0 1.3125 0.609375 2.046875q0.609375 0.734375 1.65625 0.734375q1.046875 0 1.65625 -0.734375q0.609375 -0.734375 0.609375 -2.046875q0 -1.328125 -0.609375 -2.0625zm0.71875 4.6875q-0.890625 0.96875 -2.375 0.96875q-1.484375 0 -2.375 -0.96875q-0.890625 -0.984375 -0.890625 -2.640625q0 -1.65625 0.890625 -2.625q0.890625 -0.96875 2.375 -0.96875q1.484375 0 2.375 0.96875q0.890625 0.96875 0.890625 2.625q0 1.65625 -0.890625 2.640625z" fill-rule="nonzero"/><path fill="#000000" fill-opacity="0.0" d="m216.8084 180.89764l16.56694 -94.51969" fill-rule="evenodd"/><path stroke="#3c78d8" stroke-width="2.0" stroke-linejoin="round" stroke-linecap="butt" d="m216.8084 180.89764l15.383621 -87.76844" fill-rule="evenodd"/><path fill="#3c78d8" stroke="#3c78d8" stroke-width="2.0" stroke-linecap="butt" d="m232.192 93.1292l1.8270874 2.6036987l-1.148529 -6.4750443l-3.282257 5.6984406z" fill-rule="evenodd"/><path fill="#000000" fill-opacity="0.0" d="m143.33858 247.50525l-0.18896484 -75.27559" fill-rule="evenodd"/><path stroke="#3c78d8" stroke-width="2.0" stroke-linejoin="round" stroke-linecap="butt" d="m143.32138 240.65111l-0.17176819 -68.42145" fill-rule="evenodd"/><path fill="#3c78d8" stroke="#3c78d8" stroke-width="2.0" stroke-linecap="butt" d="m143.32138 240.6511l-2.2548065 -2.243515l2.2646637 6.173874l2.2336578 -6.1851654z" fill-rule="evenodd"/><path fill="#000000" fill-opacity="0.0" d="m190.19029 57.58786l86.39369 0l0 28.7874l-86.39369 0z" fill-rule="evenodd"/><path stroke="#000000" stroke-width="1.0" stroke-linejoin="round" stroke-linecap="butt" d="m190.19029 57.58786l86.39369 0l0 28.7874l-86.39369 0z" fill-rule="evenodd"/><path fill="#000000" d="m204.66255 67.93781l0 3.171875l4.359375 0l0 0.859375l-4.359375 0l0 3.921875l4.625 0l0 0.890625l-5.6875 0l0 -9.734375l5.6875 0l0 0.890625l-4.625 0zm6.4162903 5.40625l0 -0.859375l3.96875 0l0 0.859375l-3.96875 0zm6.169052 -6.21875q1.375 -0.203125 2.703125 -0.203125q1.8125 0 2.75 0.765625q0.9375 0.765625 0.9375 2.1875q0 1.546875 -0.953125 2.34375q-0.9375 0.796875 -2.734375 0.796875q-0.890625 0 -1.640625 -0.078125l0 3.84375l-1.0625 0l0 -9.65625zm1.0625 4.9375q0.765625 0.109375 1.5625 0.109375q1.3125 0 2.015625 -0.5625q0.703125 -0.578125 0.703125 -1.640625q0 -1.078125 -0.6875 -1.625q-0.6875 -0.5625 -2.03125 -0.5625q-0.734375 0 -1.5625 0.140625l0 4.140625zm6.660385 -2.21875l0.953125 0l0.015625 1.484375l0.03125 0q1.171875 -1.609375 3.296875 -1.609375l0 0.84375q-1.46875 0 -2.390625 0.8125q-0.90625 0.8125 -0.90625 2.09375l0 3.3125l-1.0 0l0 -6.9375zm6.568863 -1.59375l0 -1.46875l1.03125 0l0 1.46875l-1.03125 0zm0 8.53125l0 -6.9375l1.03125 0l0 6.9375l-1.03125 0zm3.5604706 -6.9375l0.9375 0l0.015625 1.15625l0.015625 0q0.734375 -1.28125 1.828125 -1.28125q1.328125 0 1.875 1.328125l0.015625 0q0.703125 -1.328125 2.015625 -1.328125q1.078125 0 1.578125 0.640625q0.515625 0.625 0.515625 2.03125l0 4.390625l-0.953125 0l0 -4.125q0 -1.21875 -0.3125 -1.671875q-0.3125 -0.46875 -1.046875 -0.46875q-0.640625 0 -1.125 0.640625q-0.46875 0.640625 -0.46875 1.5625l0 4.0625l-0.953125 0l0 -4.125q0 -1.203125 -0.3125 -1.671875q-0.3125 -0.46875 -1.046875 -0.46875q-0.609375 0 -1.109375 0.703125q-0.5 0.703125 -0.5 1.671875l0 3.890625l-0.96875 0l0 -6.9375zm11.260345 3.84375q0.03125 1.140625 0.6875 1.796875q0.671875 0.640625 1.734375 0.640625q1.03125 0 2.046875 -0.53125l0.265625 0.765625q-1.125 0.5625 -2.40625 0.5625q-1.484375 0 -2.40625 -0.96875q-0.921875 -0.984375 -0.921875 -2.640625q0 -1.671875 0.859375 -2.625q0.859375 -0.96875 2.34375 -0.96875q1.4375 0 2.21875 0.921875q0.796875 0.90625 0.796875 2.609375q0 0.171875 -0.015625 0.4375l-5.203125 0zm0 -0.765625l4.265625 0q-0.015625 -1.171875 -0.5625 -1.796875q-0.546875 -0.625 -1.5 -0.625q-1.0 0 -1.578125 0.640625q-0.578125 0.625 -0.625 1.78125zm10.831619 -5.875l5.828125 0l0 0.890625l-3.203125 3.140625l0 0.03125l0.421875 0q1.40625 0 2.15625 0.6875q0.765625 0.671875 0.765625 1.953125q0 1.53125 -0.90625 2.359375q-0.90625 0.8125 -2.5625 0.8125q-1.4375 0 -2.53125 -0.703125l0.3125 -0.859375q1.125 0.65625 2.21875 0.65625q1.171875 0 1.78125 -0.5625q0.609375 -0.578125 0.609375 -1.703125q0 -0.9375 -0.640625 -1.390625q-0.625 -0.46875 -2.0 -0.46875l-0.984375 0l0 -0.828125l3.1875 -3.09375l0 -0.03125l-4.453125 0l0 -0.890625z" fill-rule="nonzero"/><path fill="#000000" fill-opacity="0.0" d="m19.790026 26.406824l37.921257 0l0 28.787401l-37.921257 0z" fill-rule="evenodd"/><path fill="#000000" d="m32.56327 41.92865l0 3.671875l-1.46875 0l0 -9.65625q1.390625 -0.203125 2.9375 -0.203125q1.828125 0 2.765625 0.78125q0.953125 0.78125 0.953125 2.21875q0 3.265625 -3.71875 3.265625q-0.71875 0 -1.46875 -0.078125zm0 -1.171875q0.65625 0.09375 1.328125 0.09375q1.171875 0 1.796875 -0.5q0.625 -0.515625 0.625 -1.46875q0 -0.96875 -0.609375 -1.46875q-0.609375 -0.5 -1.8125 -0.5q-0.765625 0 -1.328125 0.09375l0 3.75zm11.183441 -3.8125q-1.625 0 -2.609375 1.046875q-0.96875 1.03125 -0.96875 2.75q0 1.734375 1.0 2.765625q1.0 1.03125 2.578125 1.03125q1.28125 0 2.46875 -0.734375l0.453125 1.09375q-1.328125 0.84375 -3.0625 0.84375q-2.21875 0 -3.578125 -1.359375q-1.34375 -1.359375 -1.34375 -3.640625q0 -2.296875 1.328125 -3.640625q1.328125 -1.359375 3.59375 -1.359375q1.734375 0 3.0625 0.84375l-0.453125 1.078125q-1.1875 -0.71875 -2.46875 -0.71875z" fill-rule="nonzero"/><path fill="#000000" fill-opacity="0.0" d="m15.128609 119.244095l47.244095 0l0 28.7874l-47.244095 0z" fill-rule="evenodd"/><path fill="#000000" d="m29.463554 138.43779l0 -9.734375l1.609375 0l0 9.734375l-1.609375 0zm9.451584 -9.734375l-4.59375 10.265625l-1.40625 0l4.609375 -10.265625l1.390625 0zm1.7588806 1.234375q1.3125 -1.359375 3.5 -1.359375q2.1875 0 3.484375 1.359375q1.3125 1.359375 1.3125 3.640625q0 2.28125 -1.3125 3.640625q-1.296875 1.359375 -3.484375 1.359375q-2.1875 0 -3.5 -1.359375q-1.296875 -1.359375 -1.296875 -3.640625q0 -2.28125 1.296875 -3.640625zm1.09375 6.421875q0.90625 1.015625 2.390625 1.015625q1.5 0 2.40625 -1.015625q0.90625 -1.03125 0.90625 -2.78125q0 -1.765625 -0.90625 -2.78125q-0.90625 -1.015625 -2.40625 -1.015625q-1.484375 0 -2.390625 1.015625q-0.90625 1.015625 -0.90625 2.78125q0 1.75 0.90625 2.78125z" fill-rule="nonzero"/><path fill="#000000" fill-opacity="0.0" d="m143.33858 247.50525l73.480316 -37.826767" fill-rule="evenodd"/><path stroke="#3c78d8" stroke-width="2.0" stroke-linejoin="round" stroke-linecap="butt" d="m143.33858 247.50525l67.386246 -34.689606" fill-rule="evenodd"/><path fill="#3c78d8" stroke="#3c78d8" stroke-width="2.0" stroke-linecap="butt" d="m210.72481 212.81564l-0.9703064 3.02919l4.4648285 -4.828125l-6.523712 0.82862854z" fill-rule="evenodd"/><path fill="#000000" fill-opacity="0.0" d="m149.61154 180.89764l134.3937 0l0 28.7874l-134.3937 0z" fill-rule="evenodd"/><path stroke="#000000" stroke-width="1.0" stroke-linejoin="round" stroke-linecap="butt" d="m149.61154 180.89764l134.3937 0l0 28.7874l-134.3937 0z" fill-rule="evenodd"/><path fill="#000000" d="m162.33409 190.35696l0 4.34375l0.015625 0l4.328125 -4.34375l1.296875 0l-4.6875 4.671875l4.8125 5.0625l-1.28125 0l-4.46875 -4.75l-0.015625 0l0 4.75l-1.0625 0l0 -9.734375l1.0625 0zm7.0981293 6.640625q0.03125 1.140625 0.6875 1.796875q0.671875 0.640625 1.734375 0.640625q1.03125 0 2.046875 -0.53125l0.265625 0.765625q-1.125 0.5625 -2.40625 0.5625q-1.484375 0 -2.40625 -0.96875q-0.921875 -0.984375 -0.921875 -2.640625q0 -1.671875 0.859375 -2.625q0.859375 -0.96875 2.34375 -0.96875q1.4375 0 2.21875 0.921875q0.796875 0.90625 0.796875 2.609375q0 0.171875 -0.015625 0.4375l-5.203125 0zm0 -0.765625l4.265625 0q-0.015625 -1.171875 -0.5625 -1.796875q-0.546875 -0.625 -1.5 -0.625q-1.0 0 -1.578125 0.640625q-0.578125 0.625 -0.625 1.78125zm7.039398 -3.078125l2.0625 5.71875l0.03125 0l2.28125 -5.71875l1.03125 0l-4.125 9.875l-1.046875 0l1.3125 -2.984375l-2.625 -6.890625l1.078125 0zm10.189362 7.078125q-1.546875 0 -2.265625 -1.3125l-0.03125 0l-0.015625 1.171875l-0.9375 0l0 -10.0l0.984375 0l0 4.203125l0.015625 0q0.734375 -1.265625 2.25 -1.265625q1.296875 0 2.046875 0.921875q0.75 0.921875 0.75 2.671875q0 1.71875 -0.765625 2.671875q-0.765625 0.9375 -2.03125 0.9375zm1.828125 -3.609375q0 -1.359375 -0.546875 -2.078125q-0.53125 -0.71875 -1.5 -0.71875q-0.90625 0 -1.484375 0.71875q-0.5625 0.71875 -0.5625 1.984375l0 0.1875q0 1.296875 0.5625 2.0q0.578125 0.703125 1.484375 0.703125q0.9375 0 1.484375 -0.71875q0.5625 -0.734375 0.5625 -2.078125zm7.14946 -2.046875q-0.609375 -0.75 -1.65625 -0.75q-1.046875 0 -1.65625 0.75q-0.609375 0.734375 -0.609375 2.0625q0 1.3125 0.609375 2.046875q0.609375 0.734375 1.65625 0.734375q1.046875 0 1.65625 -0.734375q0.609375 -0.734375 0.609375 -2.046875q0 -1.328125 -0.609375 -2.0625zm0.71875 4.6875q-0.890625 0.96875 -2.375 0.96875q-1.484375 0 -2.375 -0.96875q-0.890625 -0.984375 -0.890625 -2.640625q0 -1.65625 0.890625 -2.625q0.890625 -0.96875 2.375 -0.96875q1.484375 0 2.375 0.96875q0.890625 0.96875 0.890625 2.625q0 1.65625 -0.890625 2.640625zm4.956375 -6.234375q1.453125 0 2.078125 0.609375q0.625 0.59375 0.625 1.96875l0 2.625q0 0.9375 0.203125 1.859375l-0.9375 0q-0.109375 -0.515625 -0.125 -1.21875l-0.03125 0q-0.359375 0.625 -1.046875 1.0q-0.671875 0.359375 -1.53125 0.359375q-0.953125 0 -1.53125 -0.546875q-0.5625 -0.546875 -0.5625 -1.453125q0 -1.171875 1.0 -1.84375q1.015625 -0.6875 2.890625 -0.6875l0.703125 0l0 -0.078125q0 -1.015625 -0.390625 -1.40625q-0.375 -0.390625 -1.34375 -0.390625q-1.25 0 -2.328125 0.609375l-0.171875 -0.78125q1.140625 -0.625 2.5 -0.625zm-1.90625 5.15625q0 0.59375 0.375 0.9375q0.375 0.34375 1.0 0.34375q0.921875 0 1.59375 -0.65625q0.671875 -0.671875 0.671875 -1.625l0 -0.75l-0.703125 0q-1.40625 0 -2.171875 0.484375q-0.765625 0.46875 -0.765625 1.265625zm6.678787 -5.03125l0.953125 0l0.015625 1.484375l0.03125 0q1.171875 -1.609375 3.296875 -1.609375l0 0.84375q-1.46875 0 -2.390625 0.8125q-0.90625 0.8125 -0.90625 2.09375l0 3.3125l-1.0 0l0 -6.9375zm6.8803253 1.40625q-0.546875 0.71875 -0.546875 2.0625q0 1.34375 0.546875 2.078125q0.5625 0.71875 1.515625 0.71875q0.90625 0 1.46875 -0.703125q0.578125 -0.703125 0.578125 -2.0l0 -0.1875q0 -1.265625 -0.578125 -1.984375q-0.5625 -0.71875 -1.46875 -0.71875q-0.96875 0 -1.515625 0.734375zm-1.515625 2.0625q0 -1.75 0.75 -2.671875q0.75 -0.921875 2.0625 -0.921875q1.5 0 2.234375 1.265625l0.03125 0l0 -4.203125l0.96875 0l0 10.0l-0.9375 0l-0.015625 -1.171875l-0.015625 0q-0.734375 1.3125 -2.265625 1.3125q-1.28125 0 -2.046875 -0.9375q-0.765625 -0.953125 -0.765625 -2.671875zm17.068771 -6.265625l-4.59375 10.265625l-1.03125 0l4.578125 -10.265625l1.046875 0zm5.6693573 9.734375l0 -9.734375l1.078125 0l3.453125 5.875l0.03125 0l3.46875 -5.875l1.125 0l0 9.734375l-1.078125 0l0 -7.9375l-0.015625 0l-3.015625 5.046875l-0.984375 0l-3.015625 -5.046875l-0.03125 0l0 7.9375l-1.015625 0zm15.734665 -5.515625q-0.609375 -0.75 -1.65625 -0.75q-1.046875 0 -1.65625 0.75q-0.609375 0.734375 -0.609375 2.0625q0 1.3125 0.609375 2.046875q0.609375 0.734375 1.65625 0.734375q1.046875 0 1.65625 -0.734375q0.609375 -0.734375 0.609375 -2.046875q0 -1.328125 -0.609375 -2.0625zm0.71875 4.6875q-0.890625 0.96875 -2.375 0.96875q-1.484375 0 -2.375 -0.96875q-0.890625 -0.984375 -0.890625 -2.640625q0 -1.65625 0.890625 -2.625q0.890625 -0.96875 2.375 -0.96875q1.484375 0 2.375 0.96875q0.890625 0.96875 0.890625 2.625q0 1.65625 -0.890625 2.640625zm3.3157501 -6.109375l0 4.3125q0 1.0625 0.34375 1.5q0.359375 0.421875 1.1875 0.421875q0.78125 0 1.40625 -0.75q0.640625 -0.75 0.640625 -1.765625l0 -3.71875l0.96875 0l0 6.9375l-0.9375 0l-0.015625 -1.234375l-0.015625 0q-0.40625 0.640625 -1.03125 1.015625q-0.609375 0.359375 -1.328125 0.359375q-1.125 0 -1.65625 -0.640625q-0.515625 -0.640625 -0.515625 -2.03125l0 -4.40625l0.953125 0zm8.843323 -0.125q1.265625 0 2.34375 0.53125l-0.21875 0.78125q-1.03125 -0.515625 -2.125 -0.515625q-0.78125 0 -1.1875 0.28125q-0.40625 0.28125 -0.40625 0.78125q0 0.484375 0.34375 0.765625q0.359375 0.28125 1.296875 0.4375q1.359375 0.234375 1.953125 0.75q0.59375 0.515625 0.59375 1.421875q0 0.90625 -0.6875 1.4375q-0.6875 0.53125 -1.90625 0.53125q-1.4375 0 -2.5625 -0.671875l0.21875 -0.78125q1.09375 0.640625 2.34375 0.640625q0.765625 0 1.171875 -0.296875q0.421875 -0.296875 0.421875 -0.859375q0 -0.53125 -0.375 -0.828125q-0.359375 -0.296875 -1.28125 -0.453125q-1.3125 -0.21875 -1.90625 -0.71875q-0.59375 -0.5 -0.59375 -1.375q0 -0.84375 0.671875 -1.34375q0.671875 -0.515625 1.890625 -0.515625zm4.858429 3.96875q0.03125 1.140625 0.6875 1.796875q0.671875 0.640625 1.734375 0.640625q1.03125 0 2.046875 -0.53125l0.265625 0.765625q-1.125 0.5625 -2.40625 0.5625q-1.484375 0 -2.40625 -0.96875q-0.921875 -0.984375 -0.921875 -2.640625q0 -1.671875 0.859375 -2.625q0.859375 -0.96875 2.34375 -0.96875q1.4375 0 2.21875 0.921875q0.796875 0.90625 0.796875 2.609375q0 0.171875 -0.015625 0.4375l-5.203125 0zm0 -0.765625l4.265625 0q-0.015625 -1.171875 -0.5625 -1.796875q-0.546875 -0.625 -1.5 -0.625q-1.0 0 -1.578125 0.640625q-0.578125 0.625 -0.625 1.78125z" fill-rule="nonzero"/><path fill="#000000" fill-opacity="0.0" d="m15.128609 180.89764l121.57481 0l0 28.7874l-121.57481 0z" fill-rule="evenodd"/><path stroke="#000000" stroke-width="1.0" stroke-linejoin="round" stroke-linecap="butt" d="m15.128609 180.89764l121.57481 0l0 28.7874l-121.57481 0z" fill-rule="evenodd"/><path fill="#000000" d="m26.5331 190.35696l7.109375 0l0 0.90625l-3.015625 0l0 8.828125l-1.0625 0l0 -8.828125l-3.03125 0l0 -0.90625zm12.159485 4.21875q-0.609375 -0.75 -1.65625 -0.75q-1.046875 0 -1.65625 0.75q-0.609375 0.734375 -0.609375 2.0625q0 1.3125 0.609375 2.046875q0.609375 0.734375 1.65625 0.734375q1.046875 0 1.65625 -0.734375q0.609375 -0.734375 0.609375 -2.046875q0 -1.328125 -0.609375 -2.0625zm0.71875 4.6875q-0.890625 0.96875 -2.375 0.96875q-1.484375 0 -2.375 -0.96875q-0.890625 -0.984375 -0.890625 -2.640625q0 -1.65625 0.890625 -2.625q0.890625 -0.96875 2.375 -0.96875q1.484375 0 2.375 0.96875q0.890625 0.96875 0.890625 2.625q0 1.65625 -0.890625 2.640625zm5.737625 0.96875q-1.546875 0 -2.265625 -1.3125l-0.03125 0l-0.015625 1.171875l-0.9375 0l0 -10.0l0.984375 0l0 4.203125l0.015625 0q0.734375 -1.265625 2.25 -1.265625q1.296875 0 2.046875 0.921875q0.75 0.921875 0.75 2.671875q0 1.71875 -0.765625 2.671875q-0.765625 0.9375 -2.03125 0.9375zm1.828125 -3.609375q0 -1.359375 -0.546875 -2.078125q-0.53125 -0.71875 -1.5 -0.71875q-0.90625 0 -1.484375 0.71875q-0.5625 0.71875 -0.5625 1.984375l0 0.1875q0 1.296875 0.5625 2.0q0.578125 0.703125 1.484375 0.703125q0.9375 0 1.484375 -0.71875q0.5625 -0.734375 0.5625 -2.078125zm3.0942535 -5.0625l0 -1.46875l1.03125 0l0 1.46875l-1.03125 0zm0 8.53125l0 -6.9375l1.03125 0l0 6.9375l-1.03125 0zm3.825058 -8.53125l0 -1.46875l1.03125 0l0 1.46875l-1.03125 0zm0 8.53125l0 -6.9375l1.03125 0l0 6.9375l-1.03125 0zm7.5662384 -9.65625q1.375 -0.203125 2.7031288 -0.203125q1.8125 0 2.75 0.765625q0.9375 0.765625 0.9375 2.1875q0 1.546875 -0.953125 2.34375q-0.9375 0.796875 -2.734375 0.796875q-0.8906288 0 -1.6406288 -0.078125l0 3.84375l-1.0625 0l0 -9.65625zm1.0625 4.9375q0.765625 0.109375 1.5625038 0.109375q1.3125 0 2.015625 -0.5625q0.703125 -0.578125 0.703125 -1.640625q0 -1.078125 -0.6875 -1.625q-0.6875 -0.5625 -2.03125 -0.5625q-0.7343788 0 -1.5625038 0.140625l0 4.140625zm6.660389 -2.21875l0.953125 0l0.015625 1.484375l0.03125 0q1.171875 -1.609375 3.296875 -1.609375l0 0.84375q-1.46875 0 -2.390625 0.8125q-0.90625 0.8125 -0.90625 2.09375l0 3.3125l-1.0 0l0 -6.9375zm10.224075 1.421875q-0.609375 -0.75 -1.65625 -0.75q-1.046875 0 -1.65625 0.75q-0.609375 0.734375 -0.609375 2.0625q0 1.3125 0.609375 2.046875q0.609375 0.734375 1.65625 0.734375q1.046875 0 1.65625 -0.734375q0.609375 -0.734375 0.609375 -2.046875q0 -1.328125 -0.609375 -2.0625zm0.71875 4.6875q-0.890625 0.96875 -2.375 0.96875q-1.484375 0 -2.375 -0.96875q-0.890625 -0.984375 -0.890625 -2.640625q0 -1.65625 0.890625 -2.625q0.890625 -0.96875 2.375 -0.96875q1.484375 0 2.375 0.96875q0.890625 0.96875 0.890625 2.625q0 1.65625 -0.890625 2.640625zm11.977768 -8.015625l-4.484375 0l0 3.3125l4.21875 0l0 0.859375l-4.21875 0l0 4.671875l-1.0625 0l0 -9.734375l5.546875 0l0 0.890625zm2.5601196 1.90625l0 4.3125q0 1.0625 0.34375 1.5q0.359375 0.421875 1.1875 0.421875q0.78125 0 1.40625 -0.75q0.640625 -0.75 0.640625 -1.765625l0 -3.71875l0.96875 0l0 6.9375l-0.9375 0l-0.015625 -1.234375l-0.015625 0q-0.40625 0.640625 -1.03125 1.015625q-0.609375 0.359375 -1.328125 0.359375q-1.125 0 -1.65625 -0.640625q-0.515625 -0.640625 -0.515625 -2.03125l0 -4.40625l0.953125 0zm8.843323 -0.125q1.265625 0 2.34375 0.53125l-0.21875 0.78125q-1.03125 -0.515625 -2.125 -0.515625q-0.78125 0 -1.1875 0.28125q-0.40625 0.28125 -0.40625 0.78125q0 0.484375 0.34375 0.765625q0.359375 0.28125 1.296875 0.4375q1.359375 0.234375 1.953125 0.75q0.59375 0.515625 0.59375 1.421875q0 0.90625 -0.6875 1.4375q-0.6875 0.53125 -1.90625 0.53125q-1.4375 0 -2.5625 -0.671875l0.21875 -0.78125q1.09375 0.640625 2.34375 0.640625q0.765625 0 1.171875 -0.296875q0.421875 -0.296875 0.421875 -0.859375q0 -0.53125 -0.375 -0.828125q-0.359375 -0.296875 -1.28125 -0.453125q-1.3125 -0.21875 -1.90625 -0.71875q-0.59375 -0.5 -0.59375 -1.375q0 -0.84375 0.671875 -1.34375q0.671875 -0.515625 1.890625 -0.515625zm4.858429 -1.46875l0 -1.46875l1.03125 0l0 1.46875l-1.03125 0zm0 8.53125l0 -6.9375l1.03125 0l0 6.9375l-1.03125 0zm8.013596 -5.515625q-0.609375 -0.75 -1.65625 -0.75q-1.046875 0 -1.65625 0.75q-0.609375 0.734375 -0.609375 2.0625q0 1.3125 0.609375 2.046875q0.609375 0.734375 1.65625 0.734375q1.046875 0 1.65625 -0.734375q0.609375 -0.734375 0.609375 -2.046875q0 -1.328125 -0.609375 -2.0625zm0.71875 4.6875q-0.890625 0.96875 -2.375 0.96875q-1.484375 0 -2.375 -0.96875q-0.890625 -0.984375 -0.890625 -2.640625q0 -1.65625 0.890625 -2.625q0.890625 -0.96875 2.375 -0.96875q1.484375 0 2.375 0.96875q0.890625 0.96875 0.890625 2.625q0 1.65625 -0.890625 2.640625zm2.4251251 -6.109375l0.9375 0l0.015625 1.25l0.015625 0q0.40625 -0.640625 1.015625 -1.0q0.625 -0.375 1.34375 -0.375q1.171875 0 1.734375 0.734375q0.578125 0.71875 0.578125 2.296875l0 4.03125l-0.96875 0l0 -3.953125q0 -1.296875 -0.375 -1.796875q-0.359375 -0.5 -1.265625 -0.5q-0.78125 0 -1.421875 0.765625q-0.640625 0.765625 -0.640625 1.78125l0 3.703125l-0.96875 0l0 -6.9375z" fill-rule="nonzero"/><path fill="#000000" fill-opacity="0.0" d="m143.33858 247.50525l-67.43307 -37.826767" fill-rule="evenodd"/><path stroke="#e69138" stroke-width="2.0" stroke-linejoin="round" stroke-linecap="butt" d="m143.33858 247.50525l-61.455185 -34.473465" fill-rule="evenodd"/><path fill="#e69138" stroke="#e69138" stroke-width="2.0" stroke-linecap="butt" d="m81.88339 213.03178l3.0619812 -0.8612366l-6.4898605 -1.0616455l4.289116 4.9848633z" fill-rule="evenodd"/><path fill="#000000" fill-opacity="0.0" d="m84.173225 247.50525l118.33071 0l0 28.787415l-118.33071 0z" fill-rule="evenodd"/><path stroke="#000000" stroke-width="1.0" stroke-linejoin="round" stroke-linecap="butt" d="m84.173225 247.50525l118.33071 0l0 28.787415l-118.33071 0z" fill-rule="evenodd"/><path fill="#000000" d="m105.1815 257.0427q1.375 -0.203125 2.703125 -0.203125q1.8125 0 2.75 0.765625q0.9375 0.765625 0.9375 2.1875q0 1.546875 -0.953125 2.34375q-0.9375 0.796875 -2.734375 0.796875q-0.890625 0 -1.640625 -0.078125l0 3.84375l-1.0625 0l0 -9.65625zm1.0625 4.9375q0.765625 0.109375 1.5625 0.109375q1.3125 0 2.015625 -0.5625q0.703125 -0.578125 0.703125 -1.640625q0 -1.078125 -0.6875 -1.625q-0.6875 -0.5625 -2.03125 -0.5625q-0.734375 0 -1.5625 0.140625l0 4.140625zm9.058304 -2.34375q1.453125 0 2.078125 0.609375q0.625 0.59375 0.625 1.96875l0 2.625q0 0.9375 0.203125 1.859375l-0.9375 0q-0.109375 -0.515625 -0.125 -1.21875l-0.03125 0q-0.359375 0.625 -1.046875 1.0q-0.671875 0.359375 -1.53125 0.359375q-0.953125 0 -1.53125 -0.546875q-0.5625 -0.546875 -0.5625 -1.453125q0 -1.171875 1.0 -1.84375q1.015625 -0.6875 2.890625 -0.6875l0.703125 0l0 -0.078125q0 -1.015625 -0.390625 -1.40625q-0.375 -0.390625 -1.34375 -0.390625q-1.25 0 -2.328125 0.609375l-0.171875 -0.78125q1.140625 -0.625 2.5 -0.625zm-1.90625 5.15625q0 0.59375 0.375 0.9375q0.375 0.34375 1.0 0.34375q0.921875 0 1.59375 -0.65625q0.671875 -0.671875 0.671875 -1.625l0 -0.75l-0.703125 0q-1.40625 0 -2.171875 0.484375q-0.765625 0.46875 -0.765625 1.265625zm6.678787 -5.03125l0.953125 0l0.015625 1.484375l0.03125 0q1.171875 -1.609375 3.296875 -1.609375l0 0.84375q-1.46875 0 -2.390625 0.8125q-0.90625 0.8125 -0.90625 2.09375l0 3.3125l-1.0 0l0 -6.9375zm8.240738 -2.265625l0 2.546875l2.625 0l0 0.796875l-2.625 0l0 3.640625q0 0.921875 0.25 1.234375q0.25 0.3125 0.9375 0.3125q0.625 0 1.1875 -0.21875l0.15625 0.78125q-0.6875 0.25 -1.46875 0.25q-1.140625 0 -1.609375 -0.484375q-0.453125 -0.5 -0.453125 -1.703125l0 -3.8125l-1.53125 0l0 -0.796875l1.53125 0l0 -2.546875l1.0 0zm5.1520996 0.671875l0 -1.46875l1.03125 0l0 1.46875l-1.03125 0zm0 8.53125l0 -6.9375l1.03125 0l0 6.9375l-1.03125 0zm6.5917206 -6.25q-1.171875 0 -1.828125 0.734375q-0.640625 0.71875 -0.640625 2.046875q0 1.28125 0.6875 2.046875q0.6875 0.75 1.78125 0.75q0.9375 0 1.796875 -0.453125l0.265625 0.796875q-1.0 0.46875 -2.09375 0.46875q-1.546875 0 -2.515625 -0.984375q-0.953125 -0.984375 -0.953125 -2.625q0 -1.6875 0.921875 -2.640625q0.921875 -0.953125 2.546875 -0.953125q1.09375 0 2.09375 0.46875l-0.265625 0.8125q-0.890625 -0.46875 -1.796875 -0.46875zm4.45726 -2.28125l0 -1.46875l1.03125 0l0 1.46875l-1.03125 0zm0 8.53125l0 -6.9375l1.03125 0l0 6.9375l-1.03125 0zm6.7948456 0.140625q-1.5 0 -2.234375 -1.21875l-0.03125 0l0 4.015625l-0.96875 0l0 -9.875l0.9375 0l0.015625 1.1875l0.015625 0q0.734375 -1.3125 2.265625 -1.3125q1.3125 0 2.046875 0.921875q0.75 0.921875 0.75 2.671875q0 1.703125 -0.765625 2.65625q-0.765625 0.953125 -2.03125 0.953125zm1.84375 -3.609375q0 -1.359375 -0.546875 -2.078125q-0.53125 -0.71875 -1.5 -0.71875q-0.921875 0 -1.5 0.71875q-0.5625 0.71875 -0.5625 1.984375l0 0.1875q0 1.296875 0.578125 2.0q0.578125 0.703125 1.484375 0.703125q0.9375 0 1.484375 -0.71875q0.5625 -0.734375 0.5625 -2.078125zm5.0901184 -3.59375q1.453125 0 2.078125 0.609375q0.625 0.59375 0.625 1.96875l0 2.625q0 0.9375 0.203125 1.859375l-0.9375 0q-0.109375 -0.515625 -0.125 -1.21875l-0.03125 0q-0.359375 0.625 -1.046875 1.0q-0.671875 0.359375 -1.53125 0.359375q-0.953125 0 -1.53125 -0.546875q-0.5625 -0.546875 -0.5625 -1.453125q0 -1.171875 1.0 -1.84375q1.015625 -0.6875 2.890625 -0.6875l0.703125 0l0 -0.078125q0 -1.015625 -0.390625 -1.40625q-0.375 -0.390625 -1.34375 -0.390625q-1.25 0 -2.328125 0.609375l-0.171875 -0.78125q1.140625 -0.625 2.5 -0.625zm-1.90625 5.15625q0 0.59375 0.375 0.9375q0.375 0.34375 1.0 0.34375q0.921875 0 1.59375 -0.65625q0.671875 -0.671875 0.671875 -1.625l0 -0.75l-0.703125 0q-1.40625 0 -2.171875 0.484375q-0.765625 0.46875 -0.765625 1.265625zm6.678787 -5.03125l0.9375 0l0.015625 1.25l0.015625 0q0.40625 -0.640625 1.015625 -1.0q0.625 -0.375 1.34375 -0.375q1.171875 0 1.734375 0.734375q0.578125 0.71875 0.578125 2.296875l0 4.03125l-0.96875 0l0 -3.953125q0 -1.296875 -0.375 -1.796875q-0.359375 -0.5 -1.265625 -0.5q-0.78125 0 -1.421875 0.765625q-0.640625 0.765625 -0.640625 1.78125l0 3.703125l-0.96875 0l0 -6.9375zm9.506805 -2.265625l0 2.546875l2.625 0l0 0.796875l-2.625 0l0 3.640625q0 0.921875 0.25 1.234375q0.25 0.3125 0.9375 0.3125q0.625 0 1.1875 -0.21875l0.15625 0.78125q-0.6875 0.25 -1.46875 0.25q-1.140625 0 -1.609375 -0.484375q-0.453125 -0.5 -0.453125 -1.703125l0 -3.8125l-1.53125 0l0 -0.796875l1.53125 0l0 -2.546875l1.0 0zm6.7843933 2.140625q1.265625 0 2.34375 0.53125l-0.21875 0.78125q-1.03125 -0.515625 -2.125 -0.515625q-0.78125 0 -1.1875 0.28125q-0.40625 0.28125 -0.40625 0.78125q0 0.484375 0.34375 0.765625q0.359375 0.28125 1.296875 0.4375q1.359375 0.234375 1.953125 0.75q0.59375 0.515625 0.59375 1.421875q0 0.90625 -0.6875 1.4375q-0.6875 0.53125 -1.90625 0.53125q-1.4375 0 -2.5625 -0.671875l0.21875 -0.78125q1.09375 0.640625 2.34375 0.640625q0.765625 0 1.171875 -0.296875q0.421875 -0.296875 0.421875 -0.859375q0 -0.53125 -0.375 -0.828125q-0.359375 -0.296875 -1.28125 -0.453125q-1.3125 -0.21875 -1.90625 -0.71875q-0.59375 -0.5 -0.59375 -1.375q0 -0.84375 0.671875 -1.34375q0.671875 -0.515625 1.890625 -0.515625z" fill-rule="nonzero"/></g></svg>